<svg width="45" height="41" viewBox="0 0 45 41" fill="none" xmlns="http://www.w3.org/2000/svg">
<path d="M41.1527 12.8457C38.804 9.62303 35.5228 7.46971 31.9242 6.49803V6.50292C31.0892 5.57518 30.1468 4.72069 29.0921 3.95897C21.099 -1.85158 9.87825 -0.0791142 4.04329 7.91405C-0.658855 14.4082 -0.458659 23.1435 4.33626 29.3496L4.37533 35.8242C4.37533 35.9805 4.39974 36.1367 4.44857 36.2832C4.70736 37.1084 5.58626 37.5625 6.40657 37.3037L12.5882 35.3555C14.224 35.9365 15.9134 36.2685 17.5931 36.3613L17.5687 36.3808C21.9193 39.5498 27.6224 40.5019 32.8519 38.7734L39.0579 40.7949C39.2142 40.8437 39.3753 40.873 39.5413 40.873C40.4056 40.873 41.1038 40.1748 41.1038 39.3105V32.7676C45.4056 26.9277 45.5179 18.8564 41.1527 12.8457ZM13.2718 31.8887L12.6859 31.6445L7.85189 33.1582L7.80306 28.0801L7.41243 27.6406C3.28157 22.6015 3.00814 15.3408 6.87533 10.0137C11.5824 3.55858 20.6058 2.1328 27.0413 6.791C33.4964 11.4834 34.9271 20.4922 30.264 26.9082C26.3529 32.2744 19.3509 34.2568 13.2718 31.8887ZM37.93 31.0586L37.5394 31.5469L37.5882 36.625L32.8031 35.0137L32.2171 35.2578C29.4827 36.2734 26.5677 36.3564 23.8675 35.5996L23.8577 35.5947C27.4661 34.4863 30.7376 32.2402 33.096 29.0078C36.8265 23.8662 37.432 17.4062 35.264 11.8984L35.2933 11.918C36.4163 12.7236 37.4466 13.7295 38.3206 14.9453C41.8656 19.8086 41.6654 26.4297 37.93 31.0586Z" fill="#624011"/>
</svg>
