<svg width="20" height="20" viewBox="0 0 20 20" fill="none" xmlns="http://www.w3.org/2000/svg">
<path d="M12.84 9.6C12.84 7.8 11.4 6.36 9.6 6.36C7.8 6.36 6.36 7.8 6.36 9.6C6.36 11.4 7.8 12.84 9.6 12.84C11.4 12.84 12.84 11.4 12.84 9.6ZM14.52 9.6C14.52 12.36 12.36 14.52 9.6 14.52C6.84 14.52 4.68 12.36 4.68 9.6C4.68 6.84 6.84 4.68 9.6 4.68C12.36 4.68 14.52 6.84 14.52 9.6ZM15.84 4.44C15.84 5.16 15.36 5.64 14.64 5.64C13.92 5.64 13.44 5.16 13.44 4.44C13.44 3.72 13.92 3.24 14.64 3.24C15.36 3.24 15.84 3.84 15.84 4.44ZM9.6 1.68C8.16 1.68 5.16 1.56 3.96 2.04C3.12 2.4 2.4 3.12 2.16 3.96C1.68 5.16 1.8 8.16 1.8 9.6C1.8 11.04 1.68 14.04 2.16 15.24C2.4 16.08 3.12 16.8 3.96 17.04C5.16 17.52 8.28 17.4 9.6 17.4C10.92 17.4 14.04 17.52 15.24 17.04C16.08 16.68 16.68 16.08 17.04 15.24C17.52 13.92 17.4 10.92 17.4 9.6C17.4 8.28 17.52 5.16 17.04 3.96C16.8 3.12 16.08 2.4 15.24 2.16C14.04 1.56 11.04 1.68 9.6 1.68ZM19.2 9.6V13.56C19.2 15 18.72 16.44 17.64 17.64C16.56 18.72 15.12 19.2 13.56 19.2H5.64C4.2 19.2 2.76 18.72 1.56 17.64C0.6 16.56 0 15.12 0 13.56V5.64C0 4.08 0.6 2.64 1.56 1.56C2.76 0.6 4.2 0 5.64 0H13.56C15 0 16.44 0.48 17.64 1.56C18.6 2.64 19.2 4.08 19.2 5.64V9.6Z" fill="white"/>
</svg>
