<svg width="36" height="38" viewBox="0 0 36 38" fill="none" xmlns="http://www.w3.org/2000/svg">
<path d="M5.5 24.23V12.8375L13.25 8.2575L11.9787 6.105L3.61375 11.0488C3.42674 11.1593 3.27178 11.3168 3.16415 11.5055C3.05653 11.6942 2.99995 11.9077 3 12.125V24.23C2.27096 24.487 1.6393 24.9633 1.1917 25.5935C0.744095 26.2237 0.502478 26.977 0.5 27.75C0.5 29.8175 2.1825 31.5 4.25 31.5C6.3175 31.5 8 29.8175 8 27.75C7.99752 26.977 7.75591 26.2237 7.3083 25.5935C6.8607 24.9633 6.22904 24.487 5.5 24.23ZM4.25 29C3.92815 28.9856 3.62426 28.8476 3.4016 28.6148C3.17893 28.3819 3.05467 28.0722 3.05467 27.75C3.05467 27.4278 3.17893 27.1181 3.4016 26.8852C3.62426 26.6524 3.92815 26.5144 4.25 26.5C4.57185 26.5144 4.87574 26.6524 5.0984 26.8852C5.32107 27.1181 5.44533 27.4278 5.44533 27.75C5.44533 28.0722 5.32107 28.3819 5.0984 28.6148C4.87574 28.8476 4.57185 28.9856 4.25 29ZM31.75 24C29.6825 24 28 25.6825 28 27.75C28 28.1913 28.09 28.6088 28.2312 29.0025L18 35.0475L9.995 30.3175L8.72375 32.47L17.3638 37.575C17.5562 37.6895 17.7759 37.7501 17.9998 37.7503C18.2238 37.7505 18.4436 37.6904 18.6363 37.5763L29.8363 30.9575C30.3988 31.2938 31.0487 31.5 31.75 31.5C33.8175 31.5 35.5 29.8175 35.5 27.75C35.5 25.6825 33.8175 24 31.75 24ZM31.75 29C31.4282 28.9856 31.1243 28.8476 30.9016 28.6148C30.6789 28.3819 30.5547 28.0722 30.5547 27.75C30.5547 27.4278 30.6789 27.1181 30.9016 26.8852C31.1243 26.6524 31.4282 26.5144 31.75 26.5C32.0718 26.5144 32.3757 26.6524 32.5984 26.8852C32.8211 27.1181 32.9453 27.4278 32.9453 27.75C32.9453 28.0722 32.8211 28.3819 32.5984 28.6148C32.3757 28.8476 32.0718 28.9856 31.75 29ZM18 7.75C18.9137 7.75 19.74 7.40875 20.3913 6.865L30.5 12.8388V21.5H33V12.125C33 11.9077 32.9435 11.6942 32.8358 11.5055C32.7282 11.3168 32.5733 11.1593 32.3863 11.0488L21.6775 4.72125C21.7225 4.4875 21.75 4.2475 21.75 4C21.75 1.9325 20.0675 0.25 18 0.25C15.9325 0.25 14.25 1.9325 14.25 4C14.25 6.0675 15.9325 7.75 18 7.75ZM18 2.75C18.2476 2.74975 18.4897 2.82296 18.6956 2.96035C18.9016 3.09775 19.0622 3.29315 19.157 3.52184C19.2519 3.75053 19.2768 4.00221 19.2285 4.24505C19.1803 4.48788 19.0611 4.71095 18.886 4.88602C18.711 5.06108 18.4879 5.18028 18.245 5.22852C18.0022 5.27676 17.7505 5.25187 17.5218 5.15701C17.2932 5.06216 17.0977 4.90159 16.9604 4.69563C16.823 4.48967 16.7498 4.24758 16.75 4C16.75 3.31 17.3113 2.75 18 2.75Z" fill="#D2B48C"/>
</svg>
