<svg width="38" height="26" viewBox="0 0 38 26" fill="none" xmlns="http://www.w3.org/2000/svg">
<path d="M18.9993 0.666748C10.666 0.666748 3.54935 5.85008 0.666016 13.1667C3.54935 20.4834 10.666 25.6667 18.9993 25.6667C27.3327 25.6667 34.4494 20.4834 37.3327 13.1667C34.4494 5.85008 27.3327 0.666748 18.9993 0.666748ZM18.9993 21.5001C14.3993 21.5001 10.666 17.7667 10.666 13.1667C10.666 8.56675 14.3993 4.83341 18.9993 4.83341C23.5993 4.83341 27.3327 8.56675 27.3327 13.1667C27.3327 17.7667 23.5993 21.5001 18.9993 21.5001ZM18.9993 8.16675C16.2327 8.16675 13.9993 10.4001 13.9993 13.1667C13.9993 15.9334 16.2327 18.1667 18.9993 18.1667C21.766 18.1667 23.9993 15.9334 23.9993 13.1667C23.9993 10.4001 21.766 8.16675 18.9993 8.16675Z" fill="#ECEFF1"/>
</svg>
