<svg width="32" height="28" viewBox="0 0 32 28" fill="none" xmlns="http://www.w3.org/2000/svg">
<path d="M29.75 0.875H2.25C1.75272 0.875 1.27581 1.07254 0.924175 1.42417C0.572544 1.77581 0.375 2.25272 0.375 2.75V25.25C0.375 25.7473 0.572544 26.2242 0.924175 26.5758C1.27581 26.9275 1.75272 27.125 2.25 27.125H29.75C30.2473 27.125 30.7242 26.9275 31.0758 26.5758C31.4275 26.2242 31.625 25.7473 31.625 25.25V2.75C31.625 2.25272 31.4275 1.77581 31.0758 1.42417C30.7242 1.07254 30.2473 0.875 29.75 0.875ZM30.375 25.25C30.375 25.4158 30.3092 25.5747 30.1919 25.6919C30.0747 25.8092 29.9158 25.875 29.75 25.875H2.25C2.08424 25.875 1.92527 25.8092 1.80806 25.6919C1.69085 25.5747 1.625 25.4158 1.625 25.25V2.75C1.625 2.58424 1.69085 2.42527 1.80806 2.30806C1.92527 2.19085 2.08424 2.125 2.25 2.125H29.75C29.9158 2.125 30.0747 2.19085 30.1919 2.30806C30.3092 2.42527 30.375 2.58424 30.375 2.75V25.25ZM24.75 9C24.75 9.16576 24.6842 9.32473 24.5669 9.44194C24.4497 9.55915 24.2908 9.625 24.125 9.625H7.875C7.70924 9.625 7.55027 9.55915 7.43306 9.44194C7.31585 9.32473 7.25 9.16576 7.25 9C7.25 8.83424 7.31585 8.67527 7.43306 8.55806C7.55027 8.44085 7.70924 8.375 7.875 8.375H24.125C24.2908 8.375 24.4497 8.44085 24.5669 8.55806C24.6842 8.67527 24.75 8.83424 24.75 9ZM24.75 14C24.75 14.1658 24.6842 14.3247 24.5669 14.4419C24.4497 14.5592 24.2908 14.625 24.125 14.625H7.875C7.70924 14.625 7.55027 14.5592 7.43306 14.4419C7.31585 14.3247 7.25 14.1658 7.25 14C7.25 13.8342 7.31585 13.6753 7.43306 13.5581C7.55027 13.4408 7.70924 13.375 7.875 13.375H24.125C24.2908 13.375 24.4497 13.4408 24.5669 13.5581C24.6842 13.6753 24.75 13.8342 24.75 14ZM24.75 19C24.75 19.1658 24.6842 19.3247 24.5669 19.4419C24.4497 19.5592 24.2908 19.625 24.125 19.625H7.875C7.70924 19.625 7.55027 19.5592 7.43306 19.4419C7.31585 19.3247 7.25 19.1658 7.25 19C7.25 18.8342 7.31585 18.6753 7.43306 18.5581C7.55027 18.4408 7.70924 18.375 7.875 18.375H24.125C24.2908 18.375 24.4497 18.4408 24.5669 18.5581C24.6842 18.6753 24.75 18.8342 24.75 19Z" fill="#D2B48C"/>
</svg>
