<svg width="34" height="28" viewBox="0 0 34 28" fill="none" xmlns="http://www.w3.org/2000/svg">
<path d="M27.0007 0.666656L30.334 5.66666H25.334L22.0007 0.666656H18.6673L22.0007 5.66666H17.0007L13.6673 0.666656H10.334L13.6673 5.66666H8.66732L5.33398 0.666656H3.66732C1.83398 0.666656 0.350651 2.16666 0.350651 3.99999L0.333984 24C0.333984 25.8333 1.83398 27.3333 3.66732 27.3333H30.334C32.1673 27.3333 33.6673 25.8333 33.6673 24V0.666656H27.0007ZM15.7507 19.4167L13.6673 24L11.584 19.4167L7.00065 17.3333L11.584 15.25L13.6673 10.6667L15.7507 15.25L20.334 17.3333L15.7507 19.4167ZM25.234 13.9L23.6673 17.3333L22.1007 13.9L18.6673 12.3333L22.1007 10.7667L23.6673 7.33332L25.234 10.7667L28.6673 12.3333L25.234 13.9Z" fill="#D2B48C"/>
</svg>
