<svg width="24" height="24" viewBox="0 0 24 24" fill="none" xmlns="http://www.w3.org/2000/svg">
<path d="M0 12.0002C0 16.914 2.95481 21.1354 7.18303 22.9913C7.14928 22.1534 7.17703 21.1475 7.39191 20.2358C7.62262 19.2616 8.93597 13.6969 8.93597 13.6969C8.93597 13.6969 8.55262 12.9307 8.55262 11.7983C8.55262 10.0199 9.58331 8.69175 10.8669 8.69175C11.9585 8.69175 12.4858 9.51159 12.4858 10.4933C12.4858 11.5906 11.786 13.2319 11.4261 14.752C11.1254 16.025 12.0643 17.0632 13.3201 17.0632C15.5937 17.0632 17.125 14.143 17.125 10.6831C17.125 8.05303 15.3536 6.08447 12.1317 6.08447C8.49159 6.08447 6.22388 8.79909 6.22388 11.8313C6.22388 12.8768 6.53212 13.6141 7.01494 14.185C7.23694 14.4473 7.26778 14.5527 7.18744 14.8538C7.12988 15.0746 6.99769 15.6062 6.94294 15.8168C6.86306 16.1208 6.61678 16.2294 6.34209 16.1172C4.66547 15.4328 3.88462 13.5967 3.88462 11.5327C3.88462 8.12381 6.75956 4.03631 12.4611 4.03631C17.0426 4.03631 20.0581 7.35169 20.0581 10.9105C20.0581 15.618 17.441 19.1348 13.5832 19.1348C12.2876 19.1348 11.069 18.4345 10.6515 17.6391C10.6515 17.6391 9.95484 20.4039 9.80728 20.9378C9.55284 21.8631 9.05484 22.7878 8.5995 23.5086C9.70365 23.835 10.8491 24.0008 12.0005 24.0007C18.6271 24.0007 24.0001 18.6279 24.0001 12.0002C24.0001 5.37272 18.6271 0 12.0005 0C5.37319 0 0 5.37272 0 12.0002Z" fill="white"/>
</svg>
