<svg width="24" height="24" viewBox="0 0 24 24" fill="none" xmlns="http://www.w3.org/2000/svg">
<path d="M23.6057 21.713L19.0739 17.1945C20.536 15.3317 21.3294 13.0313 21.3265 10.6632C21.3265 8.55425 20.7011 6.49262 19.5294 4.73906C18.3577 2.9855 16.6923 1.61877 14.7439 0.811695C12.7954 0.00462018 10.6514 -0.206547 8.58294 0.204896C6.51448 0.616339 4.61447 1.63191 3.12319 3.12319C1.63191 4.61447 0.616339 6.51448 0.204896 8.58294C-0.206547 10.6514 0.00462018 12.7954 0.811695 14.7439C1.61877 16.6923 2.9855 18.3577 4.73906 19.5294C6.49262 20.7011 8.55425 21.3265 10.6632 21.3265C13.0313 21.3294 15.3317 20.536 17.1945 19.0739L21.713 23.6057C21.8369 23.7307 21.9843 23.8298 22.1468 23.8975C22.3092 23.9652 22.4834 24 22.6594 24C22.8353 24 23.0095 23.9652 23.172 23.8975C23.3344 23.8298 23.4818 23.7307 23.6057 23.6057C23.7307 23.4818 23.8298 23.3344 23.8975 23.172C23.9652 23.0095 24 22.8353 24 22.6594C24 22.4834 23.9652 22.3092 23.8975 22.1468C23.8298 21.9843 23.7307 21.8369 23.6057 21.713ZM2.66581 10.6632C2.66581 9.08149 3.13485 7.53527 4.01362 6.2201C4.89239 4.90494 6.14142 3.87989 7.60275 3.27458C9.06409 2.66927 10.6721 2.5109 12.2235 2.81948C13.7748 3.12806 15.1998 3.88974 16.3183 5.0082C17.4367 6.12666 18.1984 7.55167 18.507 9.10301C18.8156 10.6544 18.6572 12.2624 18.0519 13.7237C17.4466 15.1851 16.4215 16.4341 15.1064 17.3128C13.7912 18.1916 12.245 18.6607 10.6632 18.6607C8.54219 18.6607 6.50801 17.8181 5.0082 16.3183C3.5084 14.8185 2.66581 12.7843 2.66581 10.6632Z" fill="#D2B48C"/>
</svg>
