<svg width="20" height="20" viewBox="0 0 20 20" fill="none" xmlns="http://www.w3.org/2000/svg">
<path d="M19.2831 7.27584L13.3323 6.411L10.6722 1.01803C10.5995 0.87037 10.48 0.750839 10.3323 0.678183C9.96199 0.49537 9.51199 0.647714 9.32684 1.01803L6.66668 6.411L0.715901 7.27584C0.551838 7.29928 0.401838 7.37662 0.286995 7.49381C0.148155 7.63651 0.0716479 7.8285 0.0742847 8.02758C0.0769216 8.22666 0.158487 8.41655 0.301057 8.55553L4.60653 12.7532L3.58934 18.6805C3.56549 18.8184 3.58074 18.9602 3.63338 19.0899C3.68602 19.2195 3.77394 19.3318 3.88716 19.4141C4.00038 19.4963 4.13437 19.5452 4.27395 19.5551C4.41352 19.5651 4.5531 19.5357 4.67684 19.4704L9.99949 16.6719L15.3222 19.4704C15.4675 19.5477 15.6362 19.5735 15.7979 19.5454C16.2057 19.4751 16.48 19.0883 16.4097 18.6805L15.3925 12.7532L19.6979 8.55553C19.8151 8.44068 19.8925 8.29068 19.9159 8.12662C19.9792 7.71646 19.6932 7.33678 19.2831 7.27584Z" fill="#FFD233"/>
</svg>
