<svg width="20" height="16" viewBox="0 0 20 16" fill="none" xmlns="http://www.w3.org/2000/svg">
<path d="M19.5023 1.88204C18.7852 2.19142 18.0047 2.41407 17.2008 2.50079C18.0354 2.00494 18.6604 1.22157 18.9586 0.297666C18.1754 0.763578 17.3174 1.09028 16.4227 1.26329C16.0487 0.863509 15.5964 0.545025 15.094 0.327683C14.5916 0.110342 14.0498 -0.00119949 13.5023 9.72751e-06C11.2875 9.72751e-06 9.50625 1.79532 9.50625 3.99845C9.50625 4.30782 9.54375 4.6172 9.60469 4.91485C6.28828 4.74142 3.33047 3.15704 1.36406 0.73126C1.00576 1.34325 0.818001 2.04007 0.820312 2.74923C0.820312 4.13673 1.52578 5.36017 2.60156 6.0797C1.96759 6.05473 1.34846 5.88047 0.794531 5.5711V5.62032C0.794531 7.56329 2.16797 9.17345 3.99844 9.54376C3.65475 9.63303 3.30119 9.67871 2.94609 9.6797C2.68594 9.6797 2.43984 9.65392 2.19141 9.61876C2.69766 11.2031 4.17188 12.3539 5.92734 12.3914C4.55391 13.4672 2.83359 14.1 0.965625 14.1C0.630469 14.1 0.321094 14.0883 0 14.0508C1.77188 15.1875 3.87422 15.8438 6.13828 15.8438C13.4883 15.8438 17.5102 9.7547 17.5102 4.46954C17.5102 4.2961 17.5102 4.12267 17.4984 3.94923C18.2766 3.3797 18.9586 2.67423 19.5023 1.88204Z" fill="white"/>
</svg>
